General
Format                                   : Windows Media
File size                                : 60.5 MiB
Duration                                 : 1mn 24s
Overall bit rate mode                    : Variable
Overall bit rate                         : 6 026 Kbps
Maximum Overall bit rate                 : 6 240 Kbps
Encoded date                             : UTC 2011-11-01 04:30:56.314

Video
ID                                       : 2
Format                                   : VC-1
Format profile                           : AP@L3
Codec ID                                 : WVC1
Codec ID/Hint                            : Microsoft
Description of the codec                 : Windows Media Video 9 Advanced Profile
Duration                                 : 1mn 24s
Bit rate mode                            : Variable
Bit rate                                 : 6 000 Kbps
Width                                    : 1 280 pixels
Height                                   : 720 pixels
Display aspect ratio                     : 16:9
Frame rate                               : 29.970 fps
Chroma subsampling                       : 4:2:0
Bit depth                                : 8 bits
Scan type                                : Progressive
Compression mode                         : Lossy
Bits/(Pixel*Frame)                       : 0.217
Stream size                              : 60.3 MiB (100%)

Audio
ID                                       : 1
Format                                   : WMA
Format profile                           : Pro
Codec ID                                 : 162
Codec ID/Info                            : Windows Media Audio
Description of the codec                 : Windows Media Audio 10 Professional - 192 kbps, 48 kHz, 2 channel 16 bit 1-pass CBR
Duration                                 : 1mn 24s
Bit rate mode                            : Constant
Bit rate                                 : 192 Kbps
Channel(s)                               : 2 channels
Sampling rate                            : 48.0 KHz
Bit depth                                : 16 bits
Stream size                              : 1.93 MiB (3%)

HAS WEBSEED DIRECT FROM ROCKSTAR!!!!!!!!!!